<svg width="20" height="20" viewBox="0 0 20 20" fill="none" xmlns="http://www.w3.org/2000/svg">
<path d="M5.83341 1.66663H14.1667C16.4664 1.66663 18.3334 3.53365 18.3334 5.83329V14.1666C18.3334 16.4663 16.4664 18.3333 14.1667 18.3333H5.83341C3.53377 18.3333 1.66675 16.4663 1.66675 14.1666V5.83329C1.66675 3.53365 3.53377 1.66663 5.83341 1.66663V1.66663" stroke="#3E362E" stroke-width="1.66667" stroke-linecap="round" stroke-linejoin="round"/>
<path d="M13.3333 9.47496C13.5443 10.8974 12.8192 12.2948 11.5347 12.9414C10.2502 13.5879 8.69588 13.3378 7.67904 12.3209C6.6622 11.3041 6.41209 9.74977 7.05861 8.46527C7.70514 7.18077 9.10253 6.45569 10.525 6.66663C11.9775 6.88201 13.118 8.02248 13.3333 9.47496M14.5833 5.41663H14.5917" stroke="#3E362E" stroke-width="1.66667" stroke-linecap="round" stroke-linejoin="round"/>
</svg>
