<svg width="20" height="17" viewBox="0 0 20 17" fill="none" xmlns="http://www.w3.org/2000/svg">
<path d="M10 0C10.855 0 11.732 0.0222066 12.582 0.0585446L13.586 0.106995L14.547 0.16453L15.447 0.226103L16.269 0.290704C17.1612 0.359232 18.0008 0.743347 18.64 1.37539C19.2791 2.00744 19.6768 2.84687 19.763 3.74584L19.803 4.17483L19.878 5.09337C19.948 6.04522 20 7.08287 20 8.0751C20 9.06733 19.948 10.105 19.878 11.0568L19.803 11.9754L19.763 12.4044C19.6768 13.3035 19.2789 14.143 18.6396 14.7751C18.0002 15.4072 17.1604 15.7912 16.268 15.8595L15.448 15.9231L14.548 15.9857L13.586 16.0432L12.582 16.0917C11.7218 16.1293 10.861 16.1488 10 16.1502C9.13902 16.1488 8.27817 16.1293 7.418 16.0917L6.414 16.0432L5.453 15.9857L4.553 15.9231L3.731 15.8595C2.83881 15.791 1.9992 15.4068 1.36004 14.7748C0.720888 14.1428 0.323191 13.3033 0.237 12.4044L0.197 11.9754L0.122 11.0568C0.0458327 10.0647 0.00513964 9.07017 0 8.0751C0 7.08287 0.052 6.04522 0.122 5.09337L0.197 4.17483L0.237 3.74584C0.323157 2.84703 0.720712 2.00772 1.35966 1.3757C1.99861 0.743675 2.83799 0.359459 3.73 0.290704L4.551 0.226103L5.451 0.16453L6.413 0.106995L7.417 0.0585446C8.2775 0.0209218 9.13869 0.00140263 10 0ZM10 2.01877C9.175 2.01877 8.326 2.04098 7.5 2.0753L6.522 2.12274L5.583 2.17826L4.701 2.23882L3.893 2.30241C3.46819 2.33243 3.06769 2.5135 2.76266 2.81345C2.45763 3.11339 2.26784 3.51279 2.227 3.94065C2.11 5.161 2 6.68013 2 8.0751C2 9.47007 2.11 10.9892 2.227 12.2095C2.312 13.0897 3.004 13.7741 3.893 13.8478L4.701 13.9104L5.583 13.9709L6.522 14.0275L7.5 14.0749C8.326 14.1092 9.175 14.1314 10 14.1314C10.825 14.1314 11.674 14.1092 12.5 14.0749L13.478 14.0275L14.417 13.9719L15.299 13.9114L16.107 13.8478C16.5318 13.8178 16.9323 13.6367 17.2373 13.3368C17.5424 13.0368 17.7322 12.6374 17.773 12.2095C17.89 10.9892 18 9.47007 18 8.0751C18 6.68013 17.89 5.161 17.773 3.94065C17.7322 3.51279 17.5424 3.11339 17.2373 2.81345C16.9323 2.5135 16.5318 2.33243 16.107 2.30241L15.299 2.23983L14.417 2.17927L13.478 2.12274L12.5 2.0753C11.6671 2.03922 10.8336 2.02037 10 2.01877ZM8 5.62733C7.99994 5.52868 8.02375 5.4315 8.06937 5.34426C8.11498 5.25701 8.18103 5.18233 8.26175 5.12671C8.34248 5.0711 8.43544 5.03623 8.53256 5.02514C8.62968 5.01405 8.72801 5.02708 8.819 5.06309L8.9 5.10346L13.1 7.55022C13.1836 7.59893 13.2544 7.66729 13.3063 7.74951C13.3581 7.83172 13.3896 7.92536 13.3979 8.02246C13.4062 8.11956 13.3912 8.21726 13.3542 8.30726C13.3171 8.39726 13.2591 8.4769 13.185 8.53942L13.1 8.59998L8.9 11.0477C8.81536 11.0972 8.72003 11.1251 8.62229 11.1288C8.52456 11.1326 8.4274 11.1122 8.33926 11.0694C8.25112 11.0266 8.17468 10.9627 8.1166 10.8833C8.05851 10.8039 8.02054 10.7113 8.006 10.6137L8 10.5229V5.62733Z" fill="#3E362E"/>
</svg>
